<mxfile host="app.diagrams.net" modified="2021-03-27T06:55:34.153Z" agent="5.0 (Macintosh; Intel Mac OS X 11_2_3) AppleWebKit/537.36 (KHTML, like Gecko) Chrome/89.0.4389.82 Safari/537.36" etag="Ui4K36p-7auwiAc0kDQ1" version="14.4.8" type="github">
  <diagram id="KMcwc66zo0s1owtwAtsU" name="ページ1">
    <mxGraphModel dx="1351" dy="933" grid="1" gridSize="10" guides="1" tooltips="1" connect="1" arrows="1" fold="1" page="1" pageScale="1" pageWidth="1169" pageHeight="827" math="0" shadow="0">
      <root>
        <mxCell id="0" />
        <mxCell id="1" parent="0" />
        <object label="users" user="" id="TI8mW6i3zvdnM-aCLv4K-14">
          <mxCell style="swimlane;fontStyle=0;childLayout=stackLayout;horizontal=1;startSize=26;horizontalStack=0;resizeParent=1;resizeParentMax=0;resizeLast=0;collapsible=1;marginBottom=0;align=center;fontSize=14;" parent="1" vertex="1">
            <mxGeometry x="250" y="10" width="160" height="206" as="geometry" />
          </mxCell>
        </object>
        <mxCell id="AFSvtwd09aoUbGUzWYIh-38" value="" style="group" vertex="1" connectable="0" parent="TI8mW6i3zvdnM-aCLv4K-14">
          <mxGeometry y="26" width="160" height="30" as="geometry" />
        </mxCell>
        <mxCell id="AFSvtwd09aoUbGUzWYIh-39" value="name" style="text;strokeColor=none;fillColor=none;spacingLeft=4;spacingRight=4;overflow=hidden;rotatable=0;points=[[0,0.5],[1,0.5]];portConstraint=eastwest;fontSize=12;" vertex="1" parent="AFSvtwd09aoUbGUzWYIh-38">
          <mxGeometry width="100" height="30" as="geometry" />
        </mxCell>
        <mxCell id="AFSvtwd09aoUbGUzWYIh-40" value="string" style="text;strokeColor=none;fillColor=none;spacingLeft=4;spacingRight=4;overflow=hidden;rotatable=0;points=[[0,0.5],[1,0.5]];portConstraint=eastwest;fontSize=12;align=right;fontColor=#666666;" vertex="1" parent="AFSvtwd09aoUbGUzWYIh-38">
          <mxGeometry x="100" width="60" height="30" as="geometry" />
        </mxCell>
        <mxCell id="AFSvtwd09aoUbGUzWYIh-32" value="" style="group" vertex="1" connectable="0" parent="TI8mW6i3zvdnM-aCLv4K-14">
          <mxGeometry y="56" width="160" height="30" as="geometry" />
        </mxCell>
        <mxCell id="AFSvtwd09aoUbGUzWYIh-33" value="email" style="text;strokeColor=none;fillColor=none;spacingLeft=4;spacingRight=4;overflow=hidden;rotatable=0;points=[[0,0.5],[1,0.5]];portConstraint=eastwest;fontSize=12;" vertex="1" parent="AFSvtwd09aoUbGUzWYIh-32">
          <mxGeometry width="100" height="20.454545454545457" as="geometry" />
        </mxCell>
        <mxCell id="AFSvtwd09aoUbGUzWYIh-34" value="string" style="text;strokeColor=none;fillColor=none;spacingLeft=4;spacingRight=4;overflow=hidden;rotatable=0;points=[[0,0.5],[1,0.5]];portConstraint=eastwest;fontSize=12;align=right;fontColor=#666666;" vertex="1" parent="AFSvtwd09aoUbGUzWYIh-32">
          <mxGeometry x="100" width="60" height="20.454545454545457" as="geometry" />
        </mxCell>
        <mxCell id="AFSvtwd09aoUbGUzWYIh-29" value="" style="group" vertex="1" connectable="0" parent="TI8mW6i3zvdnM-aCLv4K-14">
          <mxGeometry y="86" width="160" height="30" as="geometry" />
        </mxCell>
        <mxCell id="AFSvtwd09aoUbGUzWYIh-30" value="crypted_password" style="text;strokeColor=none;fillColor=none;spacingLeft=4;spacingRight=4;overflow=hidden;rotatable=0;points=[[0,0.5],[1,0.5]];portConstraint=eastwest;fontSize=12;" vertex="1" parent="AFSvtwd09aoUbGUzWYIh-29">
          <mxGeometry width="110" height="30" as="geometry" />
        </mxCell>
        <mxCell id="AFSvtwd09aoUbGUzWYIh-31" value="string" style="text;strokeColor=none;fillColor=none;spacingLeft=4;spacingRight=4;overflow=hidden;rotatable=0;points=[[0,0.5],[1,0.5]];portConstraint=eastwest;fontSize=12;align=right;fontColor=#666666;" vertex="1" parent="AFSvtwd09aoUbGUzWYIh-29">
          <mxGeometry x="110" width="50" height="30" as="geometry" />
        </mxCell>
        <mxCell id="AFSvtwd09aoUbGUzWYIh-26" value="" style="group" vertex="1" connectable="0" parent="TI8mW6i3zvdnM-aCLv4K-14">
          <mxGeometry y="116" width="160" height="30" as="geometry" />
        </mxCell>
        <mxCell id="AFSvtwd09aoUbGUzWYIh-27" value="salt" style="text;strokeColor=none;fillColor=none;spacingLeft=4;spacingRight=4;overflow=hidden;rotatable=0;points=[[0,0.5],[1,0.5]];portConstraint=eastwest;fontSize=12;" vertex="1" parent="AFSvtwd09aoUbGUzWYIh-26">
          <mxGeometry width="100" height="30" as="geometry" />
        </mxCell>
        <mxCell id="AFSvtwd09aoUbGUzWYIh-28" value="string" style="text;strokeColor=none;fillColor=none;spacingLeft=4;spacingRight=4;overflow=hidden;rotatable=0;points=[[0,0.5],[1,0.5]];portConstraint=eastwest;fontSize=12;align=right;fontColor=#666666;" vertex="1" parent="AFSvtwd09aoUbGUzWYIh-26">
          <mxGeometry x="100" width="60" height="30" as="geometry" />
        </mxCell>
        <mxCell id="AFSvtwd09aoUbGUzWYIh-20" value="" style="group" vertex="1" connectable="0" parent="TI8mW6i3zvdnM-aCLv4K-14">
          <mxGeometry y="146" width="160" height="30" as="geometry" />
        </mxCell>
        <mxCell id="AFSvtwd09aoUbGUzWYIh-21" value="created_at" style="text;strokeColor=none;fillColor=none;spacingLeft=4;spacingRight=4;overflow=hidden;rotatable=0;points=[[0,0.5],[1,0.5]];portConstraint=eastwest;fontSize=12;" vertex="1" parent="AFSvtwd09aoUbGUzWYIh-20">
          <mxGeometry width="100" height="30" as="geometry" />
        </mxCell>
        <mxCell id="AFSvtwd09aoUbGUzWYIh-22" value="datetime" style="text;strokeColor=none;fillColor=none;spacingLeft=4;spacingRight=4;overflow=hidden;rotatable=0;points=[[0,0.5],[1,0.5]];portConstraint=eastwest;fontSize=12;align=right;fontColor=#666666;" vertex="1" parent="AFSvtwd09aoUbGUzWYIh-20">
          <mxGeometry x="100" width="60" height="30" as="geometry" />
        </mxCell>
        <mxCell id="AFSvtwd09aoUbGUzWYIh-19" value="" style="group" vertex="1" connectable="0" parent="TI8mW6i3zvdnM-aCLv4K-14">
          <mxGeometry y="176" width="160" height="30" as="geometry" />
        </mxCell>
        <mxCell id="AFSvtwd09aoUbGUzWYIh-17" value="updated_at" style="text;strokeColor=none;fillColor=none;spacingLeft=4;spacingRight=4;overflow=hidden;rotatable=0;points=[[0,0.5],[1,0.5]];portConstraint=eastwest;fontSize=12;" vertex="1" parent="AFSvtwd09aoUbGUzWYIh-19">
          <mxGeometry width="100" height="30" as="geometry" />
        </mxCell>
        <mxCell id="AFSvtwd09aoUbGUzWYIh-18" value="datetime" style="text;strokeColor=none;fillColor=none;spacingLeft=4;spacingRight=4;overflow=hidden;rotatable=0;points=[[0,0.5],[1,0.5]];portConstraint=eastwest;fontSize=12;align=right;fontColor=#666666;" vertex="1" parent="AFSvtwd09aoUbGUzWYIh-19">
          <mxGeometry x="100" width="60" height="30" as="geometry" />
        </mxCell>
        <mxCell id="TI8mW6i3zvdnM-aCLv4K-18" value="measured_fidgets" style="swimlane;fontStyle=0;childLayout=stackLayout;horizontal=1;startSize=26;horizontalStack=0;resizeParent=1;resizeParentMax=0;resizeLast=0;collapsible=1;marginBottom=0;align=center;fontSize=14;" parent="1" vertex="1">
          <mxGeometry x="490" y="10" width="160" height="206" as="geometry" />
        </mxCell>
        <mxCell id="AFSvtwd09aoUbGUzWYIh-58" value="" style="group" vertex="1" connectable="0" parent="TI8mW6i3zvdnM-aCLv4K-18">
          <mxGeometry y="26" width="160" height="30" as="geometry" />
        </mxCell>
        <mxCell id="AFSvtwd09aoUbGUzWYIh-59" value="user_id" style="text;strokeColor=none;fillColor=none;spacingLeft=4;spacingRight=4;overflow=hidden;rotatable=0;points=[[0,0.5],[1,0.5]];portConstraint=eastwest;fontSize=12;" vertex="1" parent="AFSvtwd09aoUbGUzWYIh-58">
          <mxGeometry width="100" height="30" as="geometry" />
        </mxCell>
        <mxCell id="AFSvtwd09aoUbGUzWYIh-60" value="integer" style="text;strokeColor=none;fillColor=none;spacingLeft=4;spacingRight=4;overflow=hidden;rotatable=0;points=[[0,0.5],[1,0.5]];portConstraint=eastwest;fontSize=12;align=right;fontColor=#666666;" vertex="1" parent="AFSvtwd09aoUbGUzWYIh-58">
          <mxGeometry x="100" width="60" height="30" as="geometry" />
        </mxCell>
        <mxCell id="AFSvtwd09aoUbGUzWYIh-70" value="" style="group" vertex="1" connectable="0" parent="TI8mW6i3zvdnM-aCLv4K-18">
          <mxGeometry y="56" width="160" height="30" as="geometry" />
        </mxCell>
        <mxCell id="AFSvtwd09aoUbGUzWYIh-71" value="created_at" style="text;strokeColor=none;fillColor=none;spacingLeft=4;spacingRight=4;overflow=hidden;rotatable=0;points=[[0,0.5],[1,0.5]];portConstraint=eastwest;fontSize=12;" vertex="1" parent="AFSvtwd09aoUbGUzWYIh-70">
          <mxGeometry width="100" height="30" as="geometry" />
        </mxCell>
        <mxCell id="AFSvtwd09aoUbGUzWYIh-72" value="datetime" style="text;strokeColor=none;fillColor=none;spacingLeft=4;spacingRight=4;overflow=hidden;rotatable=0;points=[[0,0.5],[1,0.5]];portConstraint=eastwest;fontSize=12;align=right;fontColor=#666666;" vertex="1" parent="AFSvtwd09aoUbGUzWYIh-70">
          <mxGeometry x="100" width="60" height="30" as="geometry" />
        </mxCell>
        <mxCell id="AFSvtwd09aoUbGUzWYIh-64" value="" style="group" vertex="1" connectable="0" parent="TI8mW6i3zvdnM-aCLv4K-18">
          <mxGeometry y="86" width="160" height="30" as="geometry" />
        </mxCell>
        <mxCell id="AFSvtwd09aoUbGUzWYIh-65" value="fidget_level" style="text;strokeColor=none;fillColor=none;spacingLeft=4;spacingRight=4;overflow=hidden;rotatable=0;points=[[0,0.5],[1,0.5]];portConstraint=eastwest;fontSize=12;" vertex="1" parent="AFSvtwd09aoUbGUzWYIh-64">
          <mxGeometry width="100" height="30" as="geometry" />
        </mxCell>
        <mxCell id="AFSvtwd09aoUbGUzWYIh-66" value="float" style="text;strokeColor=none;fillColor=none;spacingLeft=4;spacingRight=4;overflow=hidden;rotatable=0;points=[[0,0.5],[1,0.5]];portConstraint=eastwest;fontSize=12;align=right;fontColor=#666666;" vertex="1" parent="AFSvtwd09aoUbGUzWYIh-64">
          <mxGeometry x="100" width="60" height="30" as="geometry" />
        </mxCell>
        <mxCell id="AFSvtwd09aoUbGUzWYIh-67" value="" style="group" vertex="1" connectable="0" parent="TI8mW6i3zvdnM-aCLv4K-18">
          <mxGeometry y="116" width="160" height="30" as="geometry" />
        </mxCell>
        <mxCell id="AFSvtwd09aoUbGUzWYIh-68" value="measured_time" style="text;strokeColor=none;fillColor=none;spacingLeft=4;spacingRight=4;overflow=hidden;rotatable=0;points=[[0,0.5],[1,0.5]];portConstraint=eastwest;fontSize=12;" vertex="1" parent="AFSvtwd09aoUbGUzWYIh-67">
          <mxGeometry width="100" height="30" as="geometry" />
        </mxCell>
        <mxCell id="AFSvtwd09aoUbGUzWYIh-69" value="float" style="text;strokeColor=none;fillColor=none;spacingLeft=4;spacingRight=4;overflow=hidden;rotatable=0;points=[[0,0.5],[1,0.5]];portConstraint=eastwest;fontSize=12;align=right;fontColor=#666666;" vertex="1" parent="AFSvtwd09aoUbGUzWYIh-67">
          <mxGeometry x="100" width="60" height="30" as="geometry" />
        </mxCell>
        <mxCell id="AFSvtwd09aoUbGUzWYIh-61" value="" style="group" vertex="1" connectable="0" parent="TI8mW6i3zvdnM-aCLv4K-18">
          <mxGeometry y="146" width="160" height="30" as="geometry" />
        </mxCell>
        <mxCell id="AFSvtwd09aoUbGUzWYIh-62" value="detected_at" style="text;strokeColor=none;fillColor=none;spacingLeft=4;spacingRight=4;overflow=hidden;rotatable=0;points=[[0,0.5],[1,0.5]];portConstraint=eastwest;fontSize=12;" vertex="1" parent="AFSvtwd09aoUbGUzWYIh-61">
          <mxGeometry width="100" height="30" as="geometry" />
        </mxCell>
        <mxCell id="AFSvtwd09aoUbGUzWYIh-63" value="datetime" style="text;strokeColor=none;fillColor=none;spacingLeft=4;spacingRight=4;overflow=hidden;rotatable=0;points=[[0,0.5],[1,0.5]];portConstraint=eastwest;fontSize=12;align=right;fontColor=#666666;" vertex="1" parent="AFSvtwd09aoUbGUzWYIh-61">
          <mxGeometry x="100" width="60" height="30" as="geometry" />
        </mxCell>
        <mxCell id="AFSvtwd09aoUbGUzWYIh-73" value="" style="group" vertex="1" connectable="0" parent="TI8mW6i3zvdnM-aCLv4K-18">
          <mxGeometry y="176" width="160" height="30" as="geometry" />
        </mxCell>
        <mxCell id="AFSvtwd09aoUbGUzWYIh-74" value="updated_at" style="text;strokeColor=none;fillColor=none;spacingLeft=4;spacingRight=4;overflow=hidden;rotatable=0;points=[[0,0.5],[1,0.5]];portConstraint=eastwest;fontSize=12;" vertex="1" parent="AFSvtwd09aoUbGUzWYIh-73">
          <mxGeometry width="100" height="30" as="geometry" />
        </mxCell>
        <mxCell id="AFSvtwd09aoUbGUzWYIh-75" value="datetime" style="text;strokeColor=none;fillColor=none;spacingLeft=4;spacingRight=4;overflow=hidden;rotatable=0;points=[[0,0.5],[1,0.5]];portConstraint=eastwest;fontSize=12;align=right;fontColor=#666666;" vertex="1" parent="AFSvtwd09aoUbGUzWYIh-73">
          <mxGeometry x="100" width="60" height="30" as="geometry" />
        </mxCell>
        <mxCell id="TI8mW6i3zvdnM-aCLv4K-25" value="authentications" style="swimlane;fontStyle=0;childLayout=stackLayout;horizontal=1;startSize=26;horizontalStack=0;resizeParent=1;resizeParentMax=0;resizeLast=0;collapsible=1;marginBottom=0;align=center;fontSize=14;" parent="1" vertex="1">
          <mxGeometry x="30" y="10" width="160" height="146" as="geometry">
            <mxRectangle x="330" y="350" width="120" height="26" as="alternateBounds" />
          </mxGeometry>
        </mxCell>
        <mxCell id="AFSvtwd09aoUbGUzWYIh-42" value="" style="group" vertex="1" connectable="0" parent="TI8mW6i3zvdnM-aCLv4K-25">
          <mxGeometry y="26" width="160" height="30" as="geometry" />
        </mxCell>
        <mxCell id="AFSvtwd09aoUbGUzWYIh-43" value="user_id" style="text;strokeColor=none;fillColor=none;spacingLeft=4;spacingRight=4;overflow=hidden;rotatable=0;points=[[0,0.5],[1,0.5]];portConstraint=eastwest;fontSize=12;" vertex="1" parent="AFSvtwd09aoUbGUzWYIh-42">
          <mxGeometry width="100" height="30" as="geometry" />
        </mxCell>
        <mxCell id="AFSvtwd09aoUbGUzWYIh-44" value="integer" style="text;strokeColor=none;fillColor=none;spacingLeft=4;spacingRight=4;overflow=hidden;rotatable=0;points=[[0,0.5],[1,0.5]];portConstraint=eastwest;fontSize=12;align=right;fontColor=#666666;" vertex="1" parent="AFSvtwd09aoUbGUzWYIh-42">
          <mxGeometry x="100" width="60" height="30" as="geometry" />
        </mxCell>
        <mxCell id="AFSvtwd09aoUbGUzWYIh-45" value="" style="group" vertex="1" connectable="0" parent="TI8mW6i3zvdnM-aCLv4K-25">
          <mxGeometry y="56" width="160" height="30" as="geometry" />
        </mxCell>
        <mxCell id="AFSvtwd09aoUbGUzWYIh-46" value="provider" style="text;strokeColor=none;fillColor=none;spacingLeft=4;spacingRight=4;overflow=hidden;rotatable=0;points=[[0,0.5],[1,0.5]];portConstraint=eastwest;fontSize=12;" vertex="1" parent="AFSvtwd09aoUbGUzWYIh-45">
          <mxGeometry width="100" height="30" as="geometry" />
        </mxCell>
        <mxCell id="AFSvtwd09aoUbGUzWYIh-47" value="string" style="text;strokeColor=none;fillColor=none;spacingLeft=4;spacingRight=4;overflow=hidden;rotatable=0;points=[[0,0.5],[1,0.5]];portConstraint=eastwest;fontSize=12;align=right;fontColor=#666666;" vertex="1" parent="AFSvtwd09aoUbGUzWYIh-45">
          <mxGeometry x="100" width="60" height="30" as="geometry" />
        </mxCell>
        <mxCell id="AFSvtwd09aoUbGUzWYIh-52" value="" style="group" vertex="1" connectable="0" parent="TI8mW6i3zvdnM-aCLv4K-25">
          <mxGeometry y="86" width="160" height="30" as="geometry" />
        </mxCell>
        <mxCell id="AFSvtwd09aoUbGUzWYIh-53" value="created_at" style="text;strokeColor=none;fillColor=none;spacingLeft=4;spacingRight=4;overflow=hidden;rotatable=0;points=[[0,0.5],[1,0.5]];portConstraint=eastwest;fontSize=12;" vertex="1" parent="AFSvtwd09aoUbGUzWYIh-52">
          <mxGeometry width="100" height="30" as="geometry" />
        </mxCell>
        <mxCell id="AFSvtwd09aoUbGUzWYIh-54" value="datetime" style="text;strokeColor=none;fillColor=none;spacingLeft=4;spacingRight=4;overflow=hidden;rotatable=0;points=[[0,0.5],[1,0.5]];portConstraint=eastwest;fontSize=12;align=right;fontColor=#666666;" vertex="1" parent="AFSvtwd09aoUbGUzWYIh-52">
          <mxGeometry x="100" width="60" height="30" as="geometry" />
        </mxCell>
        <mxCell id="AFSvtwd09aoUbGUzWYIh-55" value="" style="group" vertex="1" connectable="0" parent="TI8mW6i3zvdnM-aCLv4K-25">
          <mxGeometry y="116" width="160" height="30" as="geometry" />
        </mxCell>
        <mxCell id="AFSvtwd09aoUbGUzWYIh-56" value="updated_at" style="text;strokeColor=none;fillColor=none;spacingLeft=4;spacingRight=4;overflow=hidden;rotatable=0;points=[[0,0.5],[1,0.5]];portConstraint=eastwest;fontSize=12;" vertex="1" parent="AFSvtwd09aoUbGUzWYIh-55">
          <mxGeometry width="100" height="30" as="geometry" />
        </mxCell>
        <mxCell id="AFSvtwd09aoUbGUzWYIh-57" value="datetime" style="text;strokeColor=none;fillColor=none;spacingLeft=4;spacingRight=4;overflow=hidden;rotatable=0;points=[[0,0.5],[1,0.5]];portConstraint=eastwest;fontSize=12;align=right;fontColor=#666666;" vertex="1" parent="AFSvtwd09aoUbGUzWYIh-55">
          <mxGeometry x="100" width="60" height="30" as="geometry" />
        </mxCell>
        <mxCell id="TI8mW6i3zvdnM-aCLv4K-67" value="" style="edgeStyle=entityRelationEdgeStyle;fontSize=12;html=1;endArrow=ERone;endFill=1;" parent="1" source="TI8mW6i3zvdnM-aCLv4K-14" target="AFSvtwd09aoUbGUzWYIh-96" edge="1">
          <mxGeometry width="100" height="100" relative="1" as="geometry">
            <mxPoint x="360" y="450" as="sourcePoint" />
            <mxPoint x="490" y="538" as="targetPoint" />
          </mxGeometry>
        </mxCell>
        <mxCell id="TI8mW6i3zvdnM-aCLv4K-69" value="" style="edgeStyle=entityRelationEdgeStyle;fontSize=12;html=1;endArrow=ERzeroToMany;endFill=1;" parent="1" source="TI8mW6i3zvdnM-aCLv4K-14" target="TI8mW6i3zvdnM-aCLv4K-25" edge="1">
          <mxGeometry width="100" height="100" relative="1" as="geometry">
            <mxPoint x="360" y="450" as="sourcePoint" />
            <mxPoint x="460" y="350" as="targetPoint" />
          </mxGeometry>
        </mxCell>
        <mxCell id="TI8mW6i3zvdnM-aCLv4K-88" value="" style="edgeStyle=entityRelationEdgeStyle;fontSize=12;html=1;endArrow=ERzeroToMany;endFill=1;" parent="1" source="TI8mW6i3zvdnM-aCLv4K-14" target="TI8mW6i3zvdnM-aCLv4K-18" edge="1">
          <mxGeometry width="100" height="100" relative="1" as="geometry">
            <mxPoint x="360" y="390" as="sourcePoint" />
            <mxPoint x="460" y="290" as="targetPoint" />
          </mxGeometry>
        </mxCell>
        <mxCell id="TI8mW6i3zvdnM-aCLv4K-89" value="" style="edgeStyle=entityRelationEdgeStyle;fontSize=12;html=1;endArrow=ERzeroToMany;endFill=1;" parent="1" source="TI8mW6i3zvdnM-aCLv4K-14" target="AFSvtwd09aoUbGUzWYIh-76" edge="1">
          <mxGeometry width="100" height="100" relative="1" as="geometry">
            <mxPoint x="360" y="390" as="sourcePoint" />
            <mxPoint x="490" y="331" as="targetPoint" />
          </mxGeometry>
        </mxCell>
        <mxCell id="AFSvtwd09aoUbGUzWYIh-76" value="evaluation_fidgets" style="swimlane;fontStyle=0;childLayout=stackLayout;horizontal=1;startSize=26;horizontalStack=0;resizeParent=1;resizeParentMax=0;resizeLast=0;collapsible=1;marginBottom=0;align=center;fontSize=14;" vertex="1" parent="1">
          <mxGeometry x="490" y="228" width="230" height="206" as="geometry" />
        </mxCell>
        <mxCell id="AFSvtwd09aoUbGUzWYIh-77" value="" style="group" vertex="1" connectable="0" parent="AFSvtwd09aoUbGUzWYIh-76">
          <mxGeometry y="26" width="230" height="30" as="geometry" />
        </mxCell>
        <mxCell id="AFSvtwd09aoUbGUzWYIh-78" value="user_id" style="text;strokeColor=none;fillColor=none;spacingLeft=4;spacingRight=4;overflow=hidden;rotatable=0;points=[[0,0.5],[1,0.5]];portConstraint=eastwest;fontSize=12;" vertex="1" parent="AFSvtwd09aoUbGUzWYIh-77">
          <mxGeometry width="100" height="30" as="geometry" />
        </mxCell>
        <mxCell id="AFSvtwd09aoUbGUzWYIh-79" value="integer" style="text;strokeColor=none;fillColor=none;spacingLeft=4;spacingRight=4;overflow=hidden;rotatable=0;points=[[0,0.5],[1,0.5]];portConstraint=eastwest;fontSize=12;align=right;fontColor=#666666;" vertex="1" parent="AFSvtwd09aoUbGUzWYIh-77">
          <mxGeometry x="170" width="60" height="30" as="geometry" />
        </mxCell>
        <mxCell id="AFSvtwd09aoUbGUzWYIh-80" value="" style="group" vertex="1" connectable="0" parent="AFSvtwd09aoUbGUzWYIh-76">
          <mxGeometry y="56" width="230" height="30" as="geometry" />
        </mxCell>
        <mxCell id="AFSvtwd09aoUbGUzWYIh-81" value="comprehensive_evaluation" style="text;strokeColor=none;fillColor=none;spacingLeft=4;spacingRight=4;overflow=hidden;rotatable=0;points=[[0,0.5],[1,0.5]];portConstraint=eastwest;fontSize=12;" vertex="1" parent="AFSvtwd09aoUbGUzWYIh-80">
          <mxGeometry width="170" height="30" as="geometry" />
        </mxCell>
        <mxCell id="AFSvtwd09aoUbGUzWYIh-82" value="float" style="text;strokeColor=none;fillColor=none;spacingLeft=4;spacingRight=4;overflow=hidden;rotatable=0;points=[[0,0.5],[1,0.5]];portConstraint=eastwest;fontSize=12;align=right;fontColor=#666666;" vertex="1" parent="AFSvtwd09aoUbGUzWYIh-80">
          <mxGeometry x="170" width="60" height="30" as="geometry" />
        </mxCell>
        <mxCell id="AFSvtwd09aoUbGUzWYIh-83" value="" style="group" vertex="1" connectable="0" parent="AFSvtwd09aoUbGUzWYIh-76">
          <mxGeometry y="86" width="230" height="30" as="geometry" />
        </mxCell>
        <mxCell id="AFSvtwd09aoUbGUzWYIh-84" value="frustration_level" style="text;strokeColor=none;fillColor=none;spacingLeft=4;spacingRight=4;overflow=hidden;rotatable=0;points=[[0,0.5],[1,0.5]];portConstraint=eastwest;fontSize=12;" vertex="1" parent="AFSvtwd09aoUbGUzWYIh-83">
          <mxGeometry width="120" height="30" as="geometry" />
        </mxCell>
        <mxCell id="AFSvtwd09aoUbGUzWYIh-85" value="float" style="text;strokeColor=none;fillColor=none;spacingLeft=4;spacingRight=4;overflow=hidden;rotatable=0;points=[[0,0.5],[1,0.5]];portConstraint=eastwest;fontSize=12;align=right;fontColor=#666666;" vertex="1" parent="AFSvtwd09aoUbGUzWYIh-83">
          <mxGeometry x="170" width="60" height="30" as="geometry" />
        </mxCell>
        <mxCell id="AFSvtwd09aoUbGUzWYIh-86" value="" style="group" vertex="1" connectable="0" parent="AFSvtwd09aoUbGUzWYIh-76">
          <mxGeometry y="116" width="230" height="30" as="geometry" />
        </mxCell>
        <mxCell id="AFSvtwd09aoUbGUzWYIh-87" value="fidget_level_maximum" style="text;strokeColor=none;fillColor=none;spacingLeft=4;spacingRight=4;overflow=hidden;rotatable=0;points=[[0,0.5],[1,0.5]];portConstraint=eastwest;fontSize=12;" vertex="1" parent="AFSvtwd09aoUbGUzWYIh-86">
          <mxGeometry width="160" height="30" as="geometry" />
        </mxCell>
        <mxCell id="AFSvtwd09aoUbGUzWYIh-88" value="float" style="text;strokeColor=none;fillColor=none;spacingLeft=4;spacingRight=4;overflow=hidden;rotatable=0;points=[[0,0.5],[1,0.5]];portConstraint=eastwest;fontSize=12;align=right;fontColor=#666666;" vertex="1" parent="AFSvtwd09aoUbGUzWYIh-86">
          <mxGeometry x="170" width="60" height="30" as="geometry" />
        </mxCell>
        <mxCell id="AFSvtwd09aoUbGUzWYIh-89" value="" style="group" vertex="1" connectable="0" parent="AFSvtwd09aoUbGUzWYIh-76">
          <mxGeometry y="146" width="230" height="30" as="geometry" />
        </mxCell>
        <mxCell id="AFSvtwd09aoUbGUzWYIh-90" value="detected_at" style="text;strokeColor=none;fillColor=none;spacingLeft=4;spacingRight=4;overflow=hidden;rotatable=0;points=[[0,0.5],[1,0.5]];portConstraint=eastwest;fontSize=12;" vertex="1" parent="AFSvtwd09aoUbGUzWYIh-89">
          <mxGeometry width="100" height="30" as="geometry" />
        </mxCell>
        <mxCell id="AFSvtwd09aoUbGUzWYIh-91" value="datetime" style="text;strokeColor=none;fillColor=none;spacingLeft=4;spacingRight=4;overflow=hidden;rotatable=0;points=[[0,0.5],[1,0.5]];portConstraint=eastwest;fontSize=12;align=right;fontColor=#666666;" vertex="1" parent="AFSvtwd09aoUbGUzWYIh-89">
          <mxGeometry x="170" width="60" height="30" as="geometry" />
        </mxCell>
        <mxCell id="AFSvtwd09aoUbGUzWYIh-92" value="" style="group" vertex="1" connectable="0" parent="AFSvtwd09aoUbGUzWYIh-76">
          <mxGeometry y="176" width="230" height="30" as="geometry" />
        </mxCell>
        <mxCell id="AFSvtwd09aoUbGUzWYIh-93" value="updated_at" style="text;strokeColor=none;fillColor=none;spacingLeft=4;spacingRight=4;overflow=hidden;rotatable=0;points=[[0,0.5],[1,0.5]];portConstraint=eastwest;fontSize=12;" vertex="1" parent="AFSvtwd09aoUbGUzWYIh-92">
          <mxGeometry width="100" height="30" as="geometry" />
        </mxCell>
        <mxCell id="AFSvtwd09aoUbGUzWYIh-94" value="datetime" style="text;strokeColor=none;fillColor=none;spacingLeft=4;spacingRight=4;overflow=hidden;rotatable=0;points=[[0,0.5],[1,0.5]];portConstraint=eastwest;fontSize=12;align=right;fontColor=#666666;" vertex="1" parent="AFSvtwd09aoUbGUzWYIh-92">
          <mxGeometry x="170" width="60" height="30" as="geometry" />
        </mxCell>
        <mxCell id="AFSvtwd09aoUbGUzWYIh-96" value="settings" style="swimlane;fontStyle=0;childLayout=stackLayout;horizontal=1;startSize=26;horizontalStack=0;resizeParent=1;resizeParentMax=0;resizeLast=0;collapsible=1;marginBottom=0;align=center;fontSize=14;" vertex="1" parent="1">
          <mxGeometry x="490" y="450" width="290" height="176" as="geometry" />
        </mxCell>
        <mxCell id="AFSvtwd09aoUbGUzWYIh-97" value="" style="group" vertex="1" connectable="0" parent="AFSvtwd09aoUbGUzWYIh-96">
          <mxGeometry y="26" width="290" height="30" as="geometry" />
        </mxCell>
        <mxCell id="AFSvtwd09aoUbGUzWYIh-98" value="user_id" style="text;strokeColor=none;fillColor=none;spacingLeft=4;spacingRight=4;overflow=hidden;rotatable=0;points=[[0,0.5],[1,0.5]];portConstraint=eastwest;fontSize=12;" vertex="1" parent="AFSvtwd09aoUbGUzWYIh-97">
          <mxGeometry width="100" height="30" as="geometry" />
        </mxCell>
        <mxCell id="AFSvtwd09aoUbGUzWYIh-99" value="integer" style="text;strokeColor=none;fillColor=none;spacingLeft=4;spacingRight=4;overflow=hidden;rotatable=0;points=[[0,0.5],[1,0.5]];portConstraint=eastwest;fontSize=12;align=right;fontColor=#666666;" vertex="1" parent="AFSvtwd09aoUbGUzWYIh-97">
          <mxGeometry x="230" width="60" height="30" as="geometry" />
        </mxCell>
        <mxCell id="AFSvtwd09aoUbGUzWYIh-100" value="" style="group" vertex="1" connectable="0" parent="AFSvtwd09aoUbGUzWYIh-96">
          <mxGeometry y="56" width="290" height="30" as="geometry" />
        </mxCell>
        <mxCell id="AFSvtwd09aoUbGUzWYIh-101" value="push_notification" style="text;strokeColor=none;fillColor=none;spacingLeft=4;spacingRight=4;overflow=hidden;rotatable=0;points=[[0,0.5],[1,0.5]];portConstraint=eastwest;fontSize=12;" vertex="1" parent="AFSvtwd09aoUbGUzWYIh-100">
          <mxGeometry width="170" height="30" as="geometry" />
        </mxCell>
        <mxCell id="AFSvtwd09aoUbGUzWYIh-102" value="boolean" style="text;strokeColor=none;fillColor=none;spacingLeft=4;spacingRight=4;overflow=hidden;rotatable=0;points=[[0,0.5],[1,0.5]];portConstraint=eastwest;fontSize=12;align=right;fontColor=#666666;" vertex="1" parent="AFSvtwd09aoUbGUzWYIh-100">
          <mxGeometry x="230" width="60" height="30" as="geometry" />
        </mxCell>
        <mxCell id="AFSvtwd09aoUbGUzWYIh-103" value="" style="group" vertex="1" connectable="0" parent="AFSvtwd09aoUbGUzWYIh-96">
          <mxGeometry y="86" width="290" height="30" as="geometry" />
        </mxCell>
        <mxCell id="AFSvtwd09aoUbGUzWYIh-104" value="desktop_application_cooperation" style="text;strokeColor=none;fillColor=none;spacingLeft=4;spacingRight=4;overflow=hidden;rotatable=0;points=[[0,0.5],[1,0.5]];portConstraint=eastwest;fontSize=12;" vertex="1" parent="AFSvtwd09aoUbGUzWYIh-103">
          <mxGeometry width="190" height="30" as="geometry" />
        </mxCell>
        <mxCell id="AFSvtwd09aoUbGUzWYIh-105" value="boolean" style="text;strokeColor=none;fillColor=none;spacingLeft=4;spacingRight=4;overflow=hidden;rotatable=0;points=[[0,0.5],[1,0.5]];portConstraint=eastwest;fontSize=12;align=right;fontColor=#666666;" vertex="1" parent="AFSvtwd09aoUbGUzWYIh-103">
          <mxGeometry x="230" width="60" height="30" as="geometry" />
        </mxCell>
        <mxCell id="AFSvtwd09aoUbGUzWYIh-109" value="" style="group" vertex="1" connectable="0" parent="AFSvtwd09aoUbGUzWYIh-96">
          <mxGeometry y="116" width="290" height="30" as="geometry" />
        </mxCell>
        <mxCell id="AFSvtwd09aoUbGUzWYIh-110" value="detected_at" style="text;strokeColor=none;fillColor=none;spacingLeft=4;spacingRight=4;overflow=hidden;rotatable=0;points=[[0,0.5],[1,0.5]];portConstraint=eastwest;fontSize=12;" vertex="1" parent="AFSvtwd09aoUbGUzWYIh-109">
          <mxGeometry width="100" height="30" as="geometry" />
        </mxCell>
        <mxCell id="AFSvtwd09aoUbGUzWYIh-111" value="datetime" style="text;strokeColor=none;fillColor=none;spacingLeft=4;spacingRight=4;overflow=hidden;rotatable=0;points=[[0,0.5],[1,0.5]];portConstraint=eastwest;fontSize=12;align=right;fontColor=#666666;" vertex="1" parent="AFSvtwd09aoUbGUzWYIh-109">
          <mxGeometry x="230" width="60" height="30" as="geometry" />
        </mxCell>
        <mxCell id="AFSvtwd09aoUbGUzWYIh-112" value="" style="group" vertex="1" connectable="0" parent="AFSvtwd09aoUbGUzWYIh-96">
          <mxGeometry y="146" width="290" height="30" as="geometry" />
        </mxCell>
        <mxCell id="AFSvtwd09aoUbGUzWYIh-113" value="updated_at" style="text;strokeColor=none;fillColor=none;spacingLeft=4;spacingRight=4;overflow=hidden;rotatable=0;points=[[0,0.5],[1,0.5]];portConstraint=eastwest;fontSize=12;" vertex="1" parent="AFSvtwd09aoUbGUzWYIh-112">
          <mxGeometry width="100" height="30" as="geometry" />
        </mxCell>
        <mxCell id="AFSvtwd09aoUbGUzWYIh-114" value="datetime" style="text;strokeColor=none;fillColor=none;spacingLeft=4;spacingRight=4;overflow=hidden;rotatable=0;points=[[0,0.5],[1,0.5]];portConstraint=eastwest;fontSize=12;align=right;fontColor=#666666;" vertex="1" parent="AFSvtwd09aoUbGUzWYIh-112">
          <mxGeometry x="230" width="60" height="30" as="geometry" />
        </mxCell>
        <object label="api_keys" user="" id="AFSvtwd09aoUbGUzWYIh-118">
          <mxCell style="swimlane;fontStyle=0;childLayout=stackLayout;horizontal=1;startSize=26;horizontalStack=0;resizeParent=1;resizeParentMax=0;resizeLast=0;collapsible=1;marginBottom=0;align=center;fontSize=14;" vertex="1" parent="1">
            <mxGeometry x="490" y="641" width="160" height="176" as="geometry" />
          </mxCell>
        </object>
        <mxCell id="AFSvtwd09aoUbGUzWYIh-119" value="" style="group" vertex="1" connectable="0" parent="AFSvtwd09aoUbGUzWYIh-118">
          <mxGeometry y="26" width="160" height="30" as="geometry" />
        </mxCell>
        <mxCell id="AFSvtwd09aoUbGUzWYIh-120" value="user_id" style="text;strokeColor=none;fillColor=none;spacingLeft=4;spacingRight=4;overflow=hidden;rotatable=0;points=[[0,0.5],[1,0.5]];portConstraint=eastwest;fontSize=12;" vertex="1" parent="AFSvtwd09aoUbGUzWYIh-119">
          <mxGeometry width="100" height="30" as="geometry" />
        </mxCell>
        <mxCell id="AFSvtwd09aoUbGUzWYIh-121" value="integer" style="text;strokeColor=none;fillColor=none;spacingLeft=4;spacingRight=4;overflow=hidden;rotatable=0;points=[[0,0.5],[1,0.5]];portConstraint=eastwest;fontSize=12;align=right;fontColor=#666666;" vertex="1" parent="AFSvtwd09aoUbGUzWYIh-119">
          <mxGeometry x="100" width="60" height="30" as="geometry" />
        </mxCell>
        <mxCell id="AFSvtwd09aoUbGUzWYIh-122" value="" style="group" vertex="1" connectable="0" parent="AFSvtwd09aoUbGUzWYIh-118">
          <mxGeometry y="56" width="160" height="30" as="geometry" />
        </mxCell>
        <mxCell id="AFSvtwd09aoUbGUzWYIh-123" value="access_token" style="text;strokeColor=none;fillColor=none;spacingLeft=4;spacingRight=4;overflow=hidden;rotatable=0;points=[[0,0.5],[1,0.5]];portConstraint=eastwest;fontSize=12;" vertex="1" parent="AFSvtwd09aoUbGUzWYIh-122">
          <mxGeometry width="100" height="20.454545454545457" as="geometry" />
        </mxCell>
        <mxCell id="AFSvtwd09aoUbGUzWYIh-124" value="string" style="text;strokeColor=none;fillColor=none;spacingLeft=4;spacingRight=4;overflow=hidden;rotatable=0;points=[[0,0.5],[1,0.5]];portConstraint=eastwest;fontSize=12;align=right;fontColor=#666666;" vertex="1" parent="AFSvtwd09aoUbGUzWYIh-122">
          <mxGeometry x="100" width="60" height="20.454545454545457" as="geometry" />
        </mxCell>
        <mxCell id="AFSvtwd09aoUbGUzWYIh-125" value="" style="group" vertex="1" connectable="0" parent="AFSvtwd09aoUbGUzWYIh-118">
          <mxGeometry y="86" width="160" height="30" as="geometry" />
        </mxCell>
        <mxCell id="AFSvtwd09aoUbGUzWYIh-126" value="expires_at" style="text;strokeColor=none;fillColor=none;spacingLeft=4;spacingRight=4;overflow=hidden;rotatable=0;points=[[0,0.5],[1,0.5]];portConstraint=eastwest;fontSize=12;" vertex="1" parent="AFSvtwd09aoUbGUzWYIh-125">
          <mxGeometry width="110" height="30" as="geometry" />
        </mxCell>
        <mxCell id="AFSvtwd09aoUbGUzWYIh-127" value="datatime" style="text;strokeColor=none;fillColor=none;spacingLeft=4;spacingRight=4;overflow=hidden;rotatable=0;points=[[0,0.5],[1,0.5]];portConstraint=eastwest;fontSize=12;align=right;fontColor=#666666;" vertex="1" parent="AFSvtwd09aoUbGUzWYIh-125">
          <mxGeometry x="100" width="60" height="30" as="geometry" />
        </mxCell>
        <mxCell id="AFSvtwd09aoUbGUzWYIh-131" value="" style="group" vertex="1" connectable="0" parent="AFSvtwd09aoUbGUzWYIh-118">
          <mxGeometry y="116" width="160" height="30" as="geometry" />
        </mxCell>
        <mxCell id="AFSvtwd09aoUbGUzWYIh-132" value="created_at" style="text;strokeColor=none;fillColor=none;spacingLeft=4;spacingRight=4;overflow=hidden;rotatable=0;points=[[0,0.5],[1,0.5]];portConstraint=eastwest;fontSize=12;" vertex="1" parent="AFSvtwd09aoUbGUzWYIh-131">
          <mxGeometry width="100" height="30" as="geometry" />
        </mxCell>
        <mxCell id="AFSvtwd09aoUbGUzWYIh-133" value="datetime" style="text;strokeColor=none;fillColor=none;spacingLeft=4;spacingRight=4;overflow=hidden;rotatable=0;points=[[0,0.5],[1,0.5]];portConstraint=eastwest;fontSize=12;align=right;fontColor=#666666;" vertex="1" parent="AFSvtwd09aoUbGUzWYIh-131">
          <mxGeometry x="100" width="60" height="30" as="geometry" />
        </mxCell>
        <mxCell id="AFSvtwd09aoUbGUzWYIh-134" value="" style="group" vertex="1" connectable="0" parent="AFSvtwd09aoUbGUzWYIh-118">
          <mxGeometry y="146" width="160" height="30" as="geometry" />
        </mxCell>
        <mxCell id="AFSvtwd09aoUbGUzWYIh-135" value="updated_at" style="text;strokeColor=none;fillColor=none;spacingLeft=4;spacingRight=4;overflow=hidden;rotatable=0;points=[[0,0.5],[1,0.5]];portConstraint=eastwest;fontSize=12;" vertex="1" parent="AFSvtwd09aoUbGUzWYIh-134">
          <mxGeometry width="100" height="30" as="geometry" />
        </mxCell>
        <mxCell id="AFSvtwd09aoUbGUzWYIh-136" value="datetime" style="text;strokeColor=none;fillColor=none;spacingLeft=4;spacingRight=4;overflow=hidden;rotatable=0;points=[[0,0.5],[1,0.5]];portConstraint=eastwest;fontSize=12;align=right;fontColor=#666666;" vertex="1" parent="AFSvtwd09aoUbGUzWYIh-134">
          <mxGeometry x="100" width="60" height="30" as="geometry" />
        </mxCell>
        <mxCell id="AFSvtwd09aoUbGUzWYIh-138" value="" style="edgeStyle=entityRelationEdgeStyle;fontSize=12;html=1;endArrow=ERzeroToMany;endFill=1;" edge="1" parent="1" source="TI8mW6i3zvdnM-aCLv4K-14" target="AFSvtwd09aoUbGUzWYIh-118">
          <mxGeometry width="100" height="100" relative="1" as="geometry">
            <mxPoint x="339.9999999999998" y="360" as="sourcePoint" />
            <mxPoint x="279.9999999999998" y="330" as="targetPoint" />
          </mxGeometry>
        </mxCell>
      </root>
    </mxGraphModel>
  </diagram>
</mxfile>
